<?xml version="1.0" encoding="UTF-8" standalone="no"?>
<svg width="171px" height="50px" viewBox="0 0 171 50" version="1.1" xmlns="http://www.w3.org/2000/svg" xmlns:xlink="http://www.w3.org/1999/xlink">
    <!-- Generator: Sketch 43.1 (39012) - http://www.bohemiancoding.com/sketch -->
    <title>Artboard</title>
    <desc>Created with Sketch.</desc>
    <defs></defs>
    <g id="Page-1" stroke="none" stroke-width="1" fill="none" fill-rule="evenodd">
        <g id="Artboard" fill="#3D3D3D">
            <g id="Logo">
                <path d="M2.08257631,37.9428597 L2.08257631,49.5934775 L1.1627907,49.5934775 L1.1627907,24.7933321 L9.06613372,24.7933321 C11.6778837,24.7933321 13.6877655,25.3582565 15.0958394,26.4881223 C16.5039133,27.617988 17.2079397,29.2673402 17.2079397,31.4362282 C17.2079397,32.8329467 16.7622456,34.1018975 15.8708439,35.2431186 C14.9794423,36.3843398 13.7615902,37.1252708 12.2172511,37.4659339 C14.0000543,37.7725306 15.2775216,38.4254583 16.0496911,39.4247366 C16.8218607,40.4240148 17.2079397,41.701482 17.2079397,43.2571766 L17.2079397,45.5907068 C17.2079397,46.3628763 17.3016206,47.0555474 17.4889853,47.6687409 C17.67635,48.2819344 17.9857809,48.781566 18.4172874,49.1676508 L18.4172874,49.5934775 L17.5145349,49.5934775 C17.1057392,49.1279046 16.7991471,48.551625 16.5947493,47.8646212 C16.3903514,47.1776174 16.2881541,46.4082982 16.2881541,45.5566406 L16.2881541,43.2912427 C16.2881541,41.6106384 15.7118744,40.2991054 14.5592978,39.3566043 C13.4067212,38.4141032 11.7630466,37.9428597 9.62822493,37.9428597 L2.08257631,37.9428597 Z M2.08257631,37.0230741 L8.89580305,37.0230741 C11.428065,37.0230741 13.2931672,36.4893767 14.4911655,35.4219658 C15.6891639,34.354555 16.2881541,33.0259891 16.2881541,31.4362282 C16.2881541,29.5852923 15.6834862,28.1687231 14.4741324,27.186478 C13.2647787,26.2042329 11.4621304,25.7131177 9.06613372,25.7131177 L2.08257631,25.7131177 L2.08257631,37.0230741 Z M25.6733739,49.5764444 L24.7535883,49.5764444 L24.7535883,24.7762991 L25.6733739,24.7762991 L25.6733739,49.5764444 Z M49.7240643,41.9796966 L49.7581305,42.081895 C49.8035522,44.6255124 49.034233,46.5701014 47.4501499,47.9157204 C45.8660668,49.2613394 43.7795369,49.9341388 41.1904978,49.9341388 C38.4765489,49.9341388 36.3020158,48.9320367 34.6668332,46.9278025 C33.0316506,44.9235683 32.2140716,42.2919858 32.2140716,39.032976 L32.2140716,35.3197674 C32.2140716,32.0721131 33.0316506,29.4433694 34.6668332,27.4334575 C36.3020158,25.4235455 38.4765489,24.4186047 41.1904978,24.4186047 C43.7795369,24.4186047 45.8660668,25.0942429 47.4501499,26.4455396 C49.034233,27.7968363 49.8035522,29.7272313 49.7581305,32.2367823 L49.7240643,32.3389807 L48.9405432,32.3389807 C48.9405432,30.1019601 48.2450333,28.3759599 46.8539926,27.1609284 C45.4629518,25.9458969 43.5751391,25.3383903 41.1904978,25.3383903 C38.7717902,25.3383903 36.8243624,26.252489 35.3481559,28.080714 C33.8719494,29.908939 33.1338572,32.3105774 33.1338572,35.2857013 L33.1338572,39.032976 C33.1338572,42.0421662 33.8719494,44.4579987 35.3481559,46.280546 C36.8243624,48.1030932 38.7717902,49.0143532 41.1904978,49.0143532 C43.5751391,49.0143532 45.4629518,48.4295571 46.8539926,47.2599473 C48.2450333,46.0903375 48.9405432,44.3302716 48.9405432,41.9796966 L49.7240643,41.9796966 Z M73.4511265,49.5764444 L72.5313408,49.5764444 L72.5313408,37.7384629 L56.6905887,37.7384629 L56.6905887,49.5764444 L55.7708031,49.5764444 L55.7708031,24.7762991 L56.6905887,24.7762991 L56.6905887,36.8186773 L72.5313408,36.8186773 L72.5313408,24.7762991 L73.4511265,24.7762991 L73.4511265,49.5764444 Z M96.769395,25.6960847 L87.7418695,25.6960847 L87.7418695,49.5764444 L86.8220839,49.5764444 L86.8220839,25.6960847 L77.7945585,25.6960847 L77.7945585,24.7762991 L96.769395,24.7762991 L96.769395,25.6960847 Z M114.466751,37.1082395 L102.032613,37.1082395 L102.032613,48.6566588 L116.204124,48.6566588 L116.204124,49.5764444 L101.112827,49.5764444 L101.112827,24.7762991 L116.204124,24.7762991 L116.204124,25.6960847 L102.032613,25.6960847 L102.032613,36.1884539 L114.466751,36.1884539 L114.466751,37.1082395 Z M121.808003,37.9428597 L121.808003,49.5934775 L120.888218,49.5934775 L120.888218,24.7933321 L128.791561,24.7933321 C131.403311,24.7933321 133.413192,25.3582565 134.821266,26.4881223 C136.22934,27.617988 136.933367,29.2673402 136.933367,31.4362282 C136.933367,32.8329467 136.487673,34.1018975 135.596271,35.2431186 C134.704869,36.3843398 133.487017,37.1252708 131.942678,37.4659339 C133.725481,37.7725306 135.002949,38.4254583 135.775118,39.4247366 C136.547288,40.4240148 136.933367,41.701482 136.933367,43.2571766 L136.933367,45.5907068 C136.933367,46.3628763 137.027048,47.0555474 137.214412,47.6687409 C137.401777,48.2819344 137.711208,48.781566 138.142714,49.1676508 L138.142714,49.5934775 L137.239962,49.5934775 C136.831166,49.1279046 136.524574,48.551625 136.320176,47.8646212 C136.115778,47.1776174 136.013581,46.4082982 136.013581,45.5566406 L136.013581,43.2912427 C136.013581,41.6106384 135.437301,40.2991054 134.284725,39.3566043 C133.132148,38.4141032 131.488474,37.9428597 129.353652,37.9428597 L121.808003,37.9428597 Z M121.808003,37.0230741 L128.62123,37.0230741 C131.153492,37.0230741 133.018594,36.4893767 134.216592,35.4219658 C135.414591,34.354555 136.013581,33.0259891 136.013581,31.4362282 C136.013581,29.5852923 135.408913,28.1687231 134.199559,27.186478 C132.990206,26.2042329 131.187557,25.7131177 128.791561,25.7131177 L121.808003,25.7131177 L121.808003,37.0230741 Z" id="RICHTER"></path>
                <path d="M2.39257812,0.78125 L12.544286,24.1165516 L12.6464844,24.1165516 L22.8322584,0.78125 L24.1778706,0.78125 L24.1778706,25.5813953 L23.258085,25.5813953 L23.258085,2.39939135 L23.1558866,2.36532522 L12.9701126,25.5813953 L12.2376908,25.5813953 L2.10301599,2.48455669 L2.00081759,2.51862282 L2.00081759,25.5813953 L1.08103198,25.5813953 L1.08103198,0.78125 L2.39257812,0.78125 Z M32.5922057,25.5813953 L31.6724201,25.5813953 L31.6724201,0.78125 L32.5922057,0.78125 L32.5922057,25.5813953 Z M56.6428961,17.9846475 L56.6769622,18.0868459 C56.7223839,20.6304633 55.9530648,22.5750523 54.3689816,23.9206713 C52.7848985,25.2662903 50.6983687,25.9390898 48.1093296,25.9390898 C45.3953807,25.9390898 43.2208476,24.9369877 41.585665,22.9327535 C39.9504824,20.9285192 39.1329033,18.2969367 39.1329033,15.037927 L39.1329033,11.3247184 C39.1329033,8.07706407 39.9504824,5.44832037 41.585665,3.43840843 C43.2208476,1.42849649 45.3953807,0.423555596 48.1093296,0.423555596 C50.6983687,0.423555596 52.7848985,1.09919382 54.3689816,2.45049055 C55.9530648,3.80178728 56.7223839,5.73218222 56.6769622,8.24173328 L56.6428961,8.34393169 L55.859375,8.34393169 C55.859375,6.10691105 55.1638651,4.38091087 53.7728243,3.16587936 C52.3817836,1.95084785 50.4939709,1.34334121 48.1093296,1.34334121 C45.690622,1.34334121 43.7431942,2.25743999 42.2669876,4.08566497 C40.7907811,5.91388996 40.052689,8.31552837 40.052689,11.2906523 L40.052689,15.037927 C40.052689,18.0471172 40.7907811,20.4629496 42.2669876,22.2854969 C43.7431942,24.1080442 45.690622,25.0193041 48.1093296,25.0193041 C50.4939709,25.0193041 52.3817836,24.434508 53.7728243,23.2648983 C55.1638651,22.0952885 55.859375,20.3352225 55.859375,17.9846475 L56.6428961,17.9846475 Z M67.4077943,13.4708848 L63.6094204,13.4708848 L63.6094204,25.5813953 L62.6896348,25.5813953 L62.6896348,0.78125 L63.6094204,0.78125 L63.6094204,12.5681323 L67.6632903,12.5681323 L78.1897257,0.78125 L79.2798419,0.78125 L79.3139081,0.866415334 L68.4297783,13.1472565 L80.0974291,25.4791969 L80.0463299,25.5813953 L78.9732467,25.5813953 L67.4077943,13.4708848 Z M86.43373,25.5813953 L85.5139444,25.5813953 L85.5139444,0.78125 L86.43373,0.78125 L86.43373,25.5813953 Z M103.109102,13.9478107 L103.109102,25.5984284 L102.189317,25.5984284 L102.189317,0.798283067 L110.09266,0.798283067 C112.70441,0.798283067 114.714292,1.36320747 116.122366,2.49307322 C117.530439,3.62293897 118.234466,5.27229112 118.234466,7.44117914 C118.234466,8.83789761 117.788772,10.1068484 116.89737,11.2480696 C116.005968,12.3892908 114.788116,13.1302218 113.243777,13.4708848 C115.02658,13.7774815 116.304048,14.4304092 117.076217,15.4296875 C117.848387,16.4289658 118.234466,17.706433 118.234466,19.2621275 L118.234466,21.5956577 C118.234466,22.3678273 118.328147,23.0604984 118.515511,23.6736919 C118.702876,24.2868853 119.012307,24.786517 119.443814,25.1726017 L119.443814,25.5984284 L118.541061,25.5984284 C118.132265,25.1328556 117.825673,24.5565759 117.621275,23.8695721 C117.416878,23.1825683 117.31468,22.4132492 117.31468,21.5615916 L117.31468,19.2961937 C117.31468,17.6155893 116.738401,16.3040563 115.585824,15.3615552 C114.433247,14.4190542 112.789573,13.9478107 110.654751,13.9478107 L103.109102,13.9478107 Z M103.109102,13.0280251 L109.922329,13.0280251 C112.454591,13.0280251 114.319693,12.4943276 115.517692,11.4269168 C116.71569,10.3595059 117.31468,9.03094 117.31468,7.44117914 C117.31468,5.59024329 116.710012,4.17367406 115.500659,3.19142896 C114.291305,2.20918386 112.488657,1.71806868 110.09266,1.71806868 L103.109102,1.71806868 L103.109102,13.0280251 Z M142.659884,15.037927 C142.659884,18.3877802 141.830949,21.0420732 140.173056,23.0008857 C138.515162,24.9596982 136.232754,25.9390898 133.325763,25.9390898 C130.407416,25.9390898 128.116492,24.9596982 126.452921,23.0008857 C124.789349,21.0420732 123.957576,18.3877802 123.957576,15.037927 L123.957576,11.3247184 C123.957576,7.98622059 124.783672,5.33476636 126.435888,3.37027616 C128.088103,1.40578596 130.37335,0.423555596 133.291697,0.423555596 C136.198688,0.423555596 138.486774,1.40578596 140.156023,3.37027616 C141.825272,5.33476636 142.659884,7.98622059 142.659884,11.3247184 L142.659884,15.037927 Z M141.740098,11.2906523 C141.740098,8.24739576 141.007684,5.82872445 139.542832,4.03456577 C138.077981,2.24040709 135.99429,1.34334121 133.291697,1.34334121 C130.600459,1.34334121 128.528123,2.24040709 127.074628,4.03456577 C125.621132,5.82872445 124.894395,8.24739576 124.894395,11.2906523 L124.894395,15.037927 C124.894395,18.1038943 125.623971,20.5339209 127.083144,22.3280796 C128.542317,24.1222383 130.62317,25.0193041 133.325763,25.0193041 C136.028357,25.0193041 138.10637,24.1250771 139.559866,22.3365961 C141.013361,20.5481151 141.740098,18.1152498 141.740098,15.037927 L141.740098,11.2906523 Z M163.218795,19.636855 C163.218795,18.0811605 162.648193,16.837759 161.506972,15.9066134 C160.365751,14.9754677 158.387096,14.1238229 155.570948,13.3516533 C152.743445,12.5908392 150.673948,11.7250003 149.362396,10.7541106 C148.050843,9.78322098 147.395076,8.36665175 147.395076,6.50436047 C147.395076,4.65342461 148.167234,3.17724025 149.711573,2.07576308 C151.255913,0.974285917 153.226051,0.423555596 155.622048,0.423555596 C158.040755,0.423555596 160.016571,1.09919382 161.549555,2.45049055 C163.082539,3.80178728 163.826308,5.53914273 163.780887,7.66260901 L163.74682,7.76480741 L162.963299,7.76480741 C162.963299,5.91387156 162.281984,4.38091087 160.919331,3.16587936 C159.556679,1.95084785 157.790936,1.34334121 155.622048,1.34334121 C153.373672,1.34334121 151.593734,1.84581165 150.282181,2.85076762 C148.970628,3.85572359 148.314862,5.06222043 148.314862,6.47029433 C148.314862,7.87836823 148.857076,9.04796046 149.94152,9.9791061 C151.025964,10.9102517 152.987586,11.739186 155.826444,12.4659339 C158.57446,13.1926817 160.649634,14.0812311 162.05203,15.1316088 C163.454427,16.1819865 164.155614,17.672365 164.155614,19.6027889 C164.155614,21.5672791 163.355068,23.1144338 161.753952,24.2442996 C160.152835,25.3741654 158.148631,25.9390898 155.741279,25.9390898 C153.254439,25.9390898 151.113972,25.3571325 149.319813,24.1932004 C147.525654,23.0292683 146.656976,21.198232 146.713754,18.7000363 L146.74782,18.5978379 L147.514308,18.5978379 C147.514308,20.846214 148.343242,22.4785333 150.001136,23.4948447 C151.659029,24.5111561 153.572391,25.0193041 155.741279,25.0193041 C157.921523,25.0193041 159.712815,24.5196725 161.115212,23.5203943 C162.517608,22.521116 163.218795,21.2266159 163.218795,19.636855 Z M170.764444,25.5813953 L169.844658,25.5813953 L169.844658,0.78125 L170.764444,0.78125 L170.764444,25.5813953 Z" id="MICKI-ROSI"></path>
            </g>
        </g>
    </g>
</svg>