<?xml version="1.0" encoding="UTF-8" standalone="no"?>
<svg width="170px" height="50px" viewBox="0 0 170 50" version="1.1" xmlns="http://www.w3.org/2000/svg" xmlns:xlink="http://www.w3.org/1999/xlink">
    <!-- Generator: Sketch 43.1 (39012) - http://www.bohemiancoding.com/sketch -->
    <title>Artboard</title>
    <desc>Created with Sketch.</desc>
    <defs></defs>
    <g id="Page-1" stroke="none" stroke-width="1" fill="none" fill-rule="evenodd">
        <g id="Artboard" fill="#3D3D3D">
            <g id="Logo">
                <path d="M3.52006392,0.763494318 L12.4256481,22.1036044 L12.5255238,22.1036044 L21.4643999,0.763494318 L24.0944602,0.763494318 L24.0944602,25 L22.113592,25 L22.113592,14.2966531 L22.2800515,3.69318182 L22.1801758,3.65988991 L13.1747159,25 L11.7931019,25 L2.804288,3.75976563 L2.70441229,3.77641158 L2.88751776,14.2966531 L2.88751776,25 L0.906649503,25 L0.906649503,0.763494318 L3.52006392,0.763494318 Z M32.8835227,25 L30.8860085,25 L30.8860085,0.763494318 L32.8835227,0.763494318 L32.8835227,25 Z M56.3709606,17.426092 L56.4042525,17.5259677 C56.1934027,19.9562888 55.3278219,21.8677798 53.807484,23.260498 C52.2871462,24.6532163 50.2508118,25.349565 47.6984197,25.349565 C45.0017621,25.349565 42.8267128,24.3757865 41.1732067,22.4282005 C39.5197005,20.4806144 38.6929599,17.9587779 38.6929599,14.8626154 L38.6929599,10.9175249 C38.6929599,7.83245972 39.5197005,5.31062325 41.1732067,3.35193981 C42.8267128,1.39325636 45.0017621,0.413929332 47.6984197,0.413929332 C50.2730065,0.413929332 52.3148895,1.09640653 53.82413,2.46138139 C55.3333705,3.82635626 56.1934027,5.74617015 56.4042525,8.22088068 L56.3709606,8.32075639 L54.506614,8.32075639 C54.2402774,6.31213484 53.5494773,4.77517401 52.434193,3.70982777 C51.3189087,2.64448153 49.7403334,2.11181641 47.6984197,2.11181641 C45.5788246,2.11181641 43.8781802,2.93300848 42.5964355,4.57541726 C41.3146909,6.21782604 40.6738281,8.32074357 40.6738281,10.884233 L40.6738281,14.8626154 C40.6738281,17.4593969 41.3146909,19.5761859 42.5964355,21.213046 C43.8781802,22.8499061 45.5788246,23.6683239 47.6984197,23.6683239 C49.7403334,23.6683239 51.321683,23.1467559 52.442516,22.1036044 C53.563349,21.0604529 54.2513748,19.5012977 54.506614,17.426092 L56.3709606,17.426092 Z M66.8412642,13.5975231 L63.5120739,13.5975231 L63.5120739,25 L61.5312056,25 L61.5312056,0.763494318 L63.5120739,0.763494318 L63.5120739,11.916282 L66.8246183,11.916282 L76.3627486,0.763494318 L78.6099521,0.763494318 L78.643244,0.846724077 L68.622381,12.6819957 L79.3590199,24.9167702 L79.325728,25 L76.9620028,25 L66.8412642,13.5975231 Z M85.7344194,25 L83.7369052,25 L83.7369052,0.763494318 L85.7344194,0.763494318 L85.7344194,25 Z M102.746582,14.0469638 L102.746582,25 L100.765714,25 L100.765714,0.78014027 L108.972168,0.78014027 C111.568949,0.78014027 113.560895,1.34887127 114.948065,2.48635032 C116.335234,3.62382937 117.028809,5.2856336 117.028809,7.47181286 C117.028809,8.75910622 116.657053,9.9104397 115.91353,10.9258478 C115.170007,11.941256 114.121322,12.6819934 112.767445,13.1480824 C114.265588,13.5253925 115.34479,14.1995468 116.005083,15.1705655 C116.665375,16.1415842 116.995517,17.3595008 116.995517,18.8243519 L116.995517,21.1048473 C116.995517,21.8594676 117.084294,22.5363962 117.261852,23.1356534 C117.43941,23.7349107 117.733485,24.223187 118.144087,24.6004972 L118.144087,25 L116.113281,25 C115.702679,24.6004952 115.414152,24.0400871 115.247692,23.3187589 C115.081231,22.5974307 114.998002,21.8483704 114.998002,21.0715554 L114.998002,18.8576438 C114.998002,17.370598 114.518049,16.1970702 113.558128,15.337025 C112.598206,14.4769799 111.258221,14.0469638 109.53813,14.0469638 L102.746582,14.0469638 Z M102.746582,12.3490767 L108.722479,12.3490767 C110.908658,12.3490767 112.506653,11.9079634 113.516513,11.0257235 C114.526372,10.1434837 115.031294,8.95331005 115.031294,7.4551669 C115.031294,5.85714755 114.529147,4.62813374 113.524836,3.7680886 C112.520525,2.90804346 111.002984,2.47802734 108.972168,2.47802734 L102.746582,2.47802734 L102.746582,12.3490767 Z M140.949041,14.8626154 C140.949041,17.99207 140.091783,20.5222293 138.377242,22.4531694 C136.6627,24.3841094 134.362807,25.349565 131.477495,25.349565 C128.636571,25.349565 126.36997,24.3841094 124.677623,22.4531694 C122.985277,20.5222293 122.139116,17.99207 122.139116,14.8626154 L122.139116,10.9175249 C122.139116,7.79916765 122.982502,5.26900829 124.6693,3.32697088 C126.356099,1.38493347 128.619925,0.413929332 131.460849,0.413929332 C134.346161,0.413929332 136.648828,1.38493347 138.368919,3.32697088 C140.089009,5.26900829 140.949041,7.79916765 140.949041,10.9175249 L140.949041,14.8626154 Z M138.968173,10.884233 C138.968173,8.26525679 138.305116,6.15679066 136.978982,4.55877131 C135.652848,2.96075195 133.813488,2.16175426 131.460849,2.16175426 C129.152599,2.16175426 127.354854,2.96075195 126.06756,4.55877131 C124.780267,6.15679066 124.13663,8.26525679 124.13663,10.884233 L124.13663,14.8626154 C124.13663,17.5037863 124.783041,19.6233496 126.075883,21.221369 C127.368725,22.8193883 129.169244,23.618386 131.477495,23.618386 C133.841232,23.618386 135.680591,22.8221626 136.995628,21.2296919 C138.310664,19.6372213 138.968173,17.5148836 138.968173,14.8626154 L138.968173,10.884233 Z M160.058594,19.0573952 C160.058594,17.7368098 159.564769,16.6576081 158.577104,15.8197576 C157.589439,14.9819072 155.869375,14.2411698 153.416859,13.5975231 C150.764591,12.9316817 148.755999,12.0661009 147.391025,11.0007546 C146.02605,9.93540838 145.343572,8.49832225 145.343572,6.68945313 C145.343572,4.83619457 146.106504,3.32697671 147.632391,2.16175426 C149.158277,0.996531816 151.119706,0.413929332 153.516735,0.413929332 C156.01364,0.413929332 158.02778,1.10750372 159.559215,2.4946733 C161.09065,3.88184287 161.834162,5.57416437 161.789773,7.57168857 L161.739835,7.67156428 L159.90878,7.67156428 C159.90878,6.05135021 159.334501,4.71968739 158.185924,3.67653587 C157.037348,2.63338434 155.480967,2.11181641 153.516735,2.11181641 C151.574697,2.11181641 150.057157,2.54460682 148.964067,3.41020064 C147.870977,4.27579446 147.324441,5.3522219 147.324441,6.63951527 C147.324441,7.8602245 147.829363,8.8783917 148.839222,9.69404741 C149.849082,10.5097031 151.591341,11.2282462 154.066051,11.8496982 C156.67393,12.5155396 158.657553,13.414412 160.016979,14.5463423 C161.376405,15.6782727 162.056108,17.1708448 162.056108,19.0241033 C162.056108,20.9550434 161.265433,22.4920042 159.68406,23.635032 C158.102687,24.7780597 156.085772,25.349565 153.633256,25.349565 C151.214033,25.349565 149.102792,24.7419938 147.299472,23.5268333 C145.496151,22.3116727 144.622248,20.5388966 144.677734,18.2084517 L144.711026,18.108576 L146.542081,18.108576 C146.542081,19.9951266 147.246753,21.3933726 148.656117,22.3033558 C150.065481,23.2133391 151.724511,23.6683239 153.633256,23.6683239 C155.553099,23.6683239 157.103931,23.2466306 158.2858,22.4032315 C159.467668,21.5598324 160.058594,20.4445648 160.058594,19.0573952 Z M169.113991,25 L167.116477,25 L167.116477,0.763494318 L169.113991,0.763494318 L169.113991,25 Z" id="MICKI-ROSI"></path>
                <path d="M3.11723189,38.6330344 L3.11723189,49.5860707 L1.13636364,49.5860707 L1.13636364,25.3662109 L9.34281783,25.3662109 C11.9395993,25.3662109 13.9315449,25.9349419 15.3187145,27.072421 C16.7058841,28.2099 17.3994585,29.8717043 17.3994585,32.0578835 C17.3994585,33.3451769 17.0277026,34.4965104 16.2841797,35.5119185 C15.5406568,36.5273266 14.4919723,37.2680641 13.1380948,37.7341531 C14.636238,38.1114632 15.7154397,38.7856175 16.3757324,39.7566362 C17.0360251,40.7276549 17.3661665,41.9455715 17.3661665,43.4104226 L17.3661665,45.690918 C17.3661665,46.4455382 17.4549441,47.1224668 17.6325018,47.7217241 C17.8100595,48.3209813 18.104135,48.8092577 18.5147372,49.1865678 L18.5147372,49.5860707 L16.4839311,49.5860707 C16.0733289,49.1865658 15.784802,48.6261577 15.6183416,47.9048295 C15.4518813,47.1835014 15.3686523,46.434441 15.3686523,45.6576261 L15.3686523,43.4437145 C15.3686523,41.9566687 14.8886989,40.7831408 13.9287775,39.9230957 C12.9688562,39.0630506 11.6288705,38.6330344 9.90878018,38.6330344 L3.11723189,38.6330344 Z M3.11723189,36.9351474 L9.09312855,36.9351474 C11.2793078,36.9351474 12.8773032,36.4940341 13.8871626,35.6117942 C14.8970221,34.7295544 15.4019442,33.5393807 15.4019442,32.0412376 C15.4019442,30.4432182 14.8997964,29.2142044 13.8954856,28.3541593 C12.8911748,27.4941141 11.3736341,27.064098 9.34281783,27.064098 L3.11723189,27.064098 L3.11723189,36.9351474 Z M26.0553533,49.5860707 L24.0578391,49.5860707 L24.0578391,25.349565 L26.0553533,25.349565 L26.0553533,49.5860707 Z M49.5427912,42.0121626 L49.5760831,42.1120384 C49.3652333,44.5423595 48.4996525,46.4538505 46.9793146,47.8465687 C45.4589768,49.239287 43.4226424,49.9356357 40.8702504,49.9356357 C38.1735927,49.9356357 35.9985434,48.9618572 34.3450373,47.0142711 C32.6915312,45.066685 31.8647905,42.5448486 31.8647905,39.4486861 L31.8647905,35.5035955 C31.8647905,32.4185304 32.6915312,29.8966939 34.3450373,27.9380105 C35.9985434,25.979327 38.1735927,25 40.8702504,25 C43.4448371,25 45.4867201,25.6824772 46.9959606,27.0474521 C48.5052011,28.4124269 49.3652333,30.3322408 49.5760831,32.8069513 L49.5427912,32.9068271 L47.6784446,32.9068271 C47.412108,30.8982055 46.721308,29.3612447 45.6060236,28.2958984 C44.4907393,27.2305522 42.912164,26.6978871 40.8702504,26.6978871 C38.7506552,26.6978871 37.0500108,27.5190791 35.7682662,29.1614879 C34.4865215,30.8038967 33.8456587,32.9068142 33.8456587,35.4703036 L33.8456587,39.4486861 C33.8456587,42.0454675 34.4865215,44.1622566 35.7682662,45.7991167 C37.0500108,47.4359768 38.7506552,48.2543945 40.8702504,48.2543945 C42.912164,48.2543945 44.4935136,47.7328266 45.6143466,46.6896751 C46.7351796,45.6465235 47.4232054,44.0873683 47.6784446,42.0121626 L49.5427912,42.0121626 Z M72.4476207,49.5860707 L70.4667525,49.5860707 L70.4667525,38.433283 L56.6839045,38.433283 L56.6839045,49.5860707 L54.7030362,49.5860707 L54.7030362,25.349565 L56.6839045,25.349565 L56.6839045,36.735396 L70.4667525,36.735396 L70.4667525,25.349565 L72.4476207,25.349565 L72.4476207,49.5860707 Z M95.0528232,27.0474521 L86.7132013,27.0474521 L86.7132013,49.5860707 L84.7156871,49.5860707 L84.7156871,27.0474521 L76.3760653,27.0474521 L76.3760653,25.349565 L95.0528232,25.349565 L95.0528232,27.0474521 Z M112.647594,37.8506747 L100.978782,37.8506747 L100.978782,47.9048295 L114.345481,47.9048295 L114.345481,49.5860707 L98.9979137,49.5860707 L98.9979137,25.349565 L114.262251,25.349565 L114.262251,27.0474521 L100.978782,27.0474521 L100.978782,36.1527876 L112.647594,36.1527876 L112.647594,37.8506747 Z M120.571067,38.6330344 L120.571067,49.5860707 L118.590199,49.5860707 L118.590199,25.3662109 L126.796653,25.3662109 C129.393435,25.3662109 131.38538,25.9349419 132.77255,27.072421 C134.159719,28.2099 134.853294,29.8717043 134.853294,32.0578835 C134.853294,33.3451769 134.481538,34.4965104 133.738015,35.5119185 C132.994492,36.5273266 131.945808,37.2680641 130.59193,37.7341531 C132.090073,38.1114632 133.169275,38.7856175 133.829568,39.7566362 C134.48986,40.7276549 134.820002,41.9455715 134.820002,43.4104226 L134.820002,45.690918 C134.820002,46.4455382 134.908779,47.1224668 135.086337,47.7217241 C135.263895,48.3209813 135.55797,48.8092577 135.968572,49.1865678 L135.968572,49.5860707 L133.937766,49.5860707 C133.527164,49.1865658 133.238637,48.6261577 133.072177,47.9048295 C132.905716,47.1835014 132.822488,46.434441 132.822488,45.6576261 L132.822488,43.4437145 C132.822488,41.9566687 132.342534,40.7831408 131.382613,39.9230957 C130.422691,39.0630506 129.082706,38.6330344 127.362615,38.6330344 L120.571067,38.6330344 Z M120.571067,36.9351474 L126.546964,36.9351474 C128.733143,36.9351474 130.331138,36.4940341 131.340998,35.6117942 C132.350857,34.7295544 132.855779,33.5393807 132.855779,32.0412376 C132.855779,30.4432182 132.353632,29.2142044 131.349321,28.3541593 C130.34501,27.4941141 128.827469,27.064098 126.796653,27.064098 L120.571067,27.064098 L120.571067,36.9351474 Z" id="RICHTER"></path>
            </g>
        </g>
    </g>
</svg>